<svg xmlns="http://www.w3.org/2000/svg" width="200" height="200" version="1.1"><style>path{fill:#100f0f}@media (prefers-color-scheme:dark){path{fill:#cecdc3}}</style><path fill="#6C6326" d="M0 0 C32 0 32 0 38.4921875 5.74609375 C39.794503 8.34182821 40.85251265 10.74949763 41.875 13.4375 C42.50048583 14.78177527 43.1390143 16.12005411 43.79003906 17.45214844 C45.05455873 20.07430109 46.25162869 22.71127969 47.39550781 25.38818359 C49.48503642 30.09184857 52.02912704 34.39218325 54.75 38.75 C57.94678593 44.10735792 60.96860191 49.54348343 64 55 C64.33 36.85 64.66 18.7 65 0 C75.56 0 86.12 0 97 0 C97 35.64 97 71.28 97 108 C86.44 108 75.88 108 65 108 C55.41666667 95.36111111 55.41666667 95.36111111 52.45849609 87.33837891 C50.41911622 82.67040429 47.62085255 78.36808759 45 74 C41.04 67.4 37.08 60.8 33 54 C32.67 71.82 32.34 89.64 32 108 C21.44 108 10.88 108 0 108 C0 72.36 0 36.72 0 0 Z" transform="translate(7,47)"/><path fill="#6B6226" d="M0 0 C10.89 0 21.78 0 33 0 C33 26.73 33 53.46 33 81 C47.19 81 61.38 81 76 81 C76 89.91 76 98.82 76 108 C50.92 108 25.84 108 0 108 C0 72.36 0 36.72 0 0 Z" transform="translate(116,47)"/></svg>